<svg xmlns="http://www.w3.org/2000/svg" xmlns:xlink="http://www.w3.org/1999/xlink" viewBox="0 0 276.57 174.5"><defs><style>.cls-1{clip-path:url(#clip-path);}.cls-2,.cls-5{fill:none;}.cls-3{isolation:isolate;}.cls-4{clip-path:url(#clip-path-2);}.cls-5{clip-rule:evenodd;}.cls-6{mask:url(#mask);}.cls-11,.cls-15,.cls-22,.cls-41,.cls-49,.cls-7{mix-blend-mode:multiply;}.cls-7{fill:url(#linear-gradient);}.cls-8{clip-path:url(#clip-path-3);}.cls-9{clip-path:url(#clip-path-4);}.cls-10{mask:url(#mask-2);}.cls-11{fill:url(#linear-gradient-2);}.cls-12{clip-path:url(#clip-path-5);}.cls-13{clip-path:url(#clip-path-6);}.cls-14{mask:url(#mask-3);}.cls-15{fill:url(#linear-gradient-3);}.cls-16,.cls-44{fill:#1768c1;}.cls-17{fill:url(#linear-gradient-4);}.cls-18{fill:#fff;}.cls-19{fill:#1a55a5;}.cls-20,.cls-26{fill:#1d79cc;}.cls-20,.cls-21,.cls-24,.cls-33,.cls-43,.cls-44{fill-rule:evenodd;}.cls-21,.cls-32{fill:#0064b2;}.cls-22{opacity:0.8;}.cls-23{clip-path:url(#clip-path-7);}.cls-24{fill:#e7e6e6;}.cls-25{clip-path:url(#clip-path-8);}.cls-27{clip-path:url(#clip-path-9);}.cls-28{clip-path:url(#clip-path-10);}.cls-29{fill:url(#radial-gradient);}.cls-30{clip-path:url(#clip-path-11);}.cls-31,.cls-43{fill:#919396;}.cls-33{fill:url(#linear-gradient-5);}.cls-34{clip-path:url(#clip-path-12);}.cls-35{fill:url(#linear-gradient-6);}.cls-36{mask:url(#mask-4);}.cls-37{opacity:0.5;}.cls-38{clip-path:url(#clip-path-13);}.cls-39{clip-path:url(#clip-path-14);}.cls-40{fill:url(#linear-gradient-7);}.cls-41{opacity:0.3;}.cls-42{clip-path:url(#clip-path-15);}.cls-45{mask:url(#mask-5);}.cls-46{clip-path:url(#clip-path-16);}.cls-47{clip-path:url(#clip-path-17);}.cls-48{fill:url(#linear-gradient-8);}.cls-49{opacity:0.2;}.cls-50{clip-path:url(#clip-path-18);}.cls-51{mask:url(#mask-6);}.cls-52{clip-path:url(#clip-path-19);}.cls-53{clip-path:url(#clip-path-20);}.cls-54{fill:url(#linear-gradient-9);}.cls-55{clip-path:url(#clip-path-21);}.cls-56{fill:url(#linear-gradient-11);}.cls-57{opacity:0.02;mix-blend-mode:screen;}.cls-58{clip-path:url(#clip-path-22);}.cls-59{filter:url(#luminosity-noclip-6);}.cls-60{filter:url(#luminosity-noclip-5);}.cls-61{filter:url(#luminosity-noclip-4);}.cls-62{filter:url(#luminosity-noclip-3);}.cls-63{filter:url(#luminosity-noclip-2);}.cls-64{filter:url(#luminosity-noclip);}</style><clipPath id="clip-path"><rect class="cls-2" x="118.23" y="53.54" width="3.74" height="4.22"/></clipPath><clipPath id="clip-path-2"><path class="cls-5" d="M121.5,56.57a1.75,1.75,0,1,0-2.81-1.82,1.75,1.75,0,1,0,2.81,1.82"/></clipPath><filter id="luminosity-noclip" x="116" y="-8292" width="8.2" height="32766" filterUnits="userSpaceOnUse" color-interpolation-filters="sRGB"><feFlood flood-color="#fff" result="bg"/><feBlend in="SourceGraphic" in2="bg"/></filter><mask id="mask" x="116" y="-8292" width="8.2" height="32766" maskUnits="userSpaceOnUse"><g class="cls-64"/></mask><linearGradient id="linear-gradient" x1="-100.61" y1="636.18" x2="-97.61" y2="636.18" gradientTransform="matrix(1.05, -1.05, -0.67, -0.94, 652.88, 547.8)" gradientUnits="userSpaceOnUse"><stop offset="0" stop-color="#231f20"/><stop offset="0.14" stop-color="#231f20"/><stop offset="0.24" stop-color="#282425"/><stop offset="0.37" stop-color="#373435"/><stop offset="0.52" stop-color="#504e4f"/><stop offset="0.67" stop-color="#737273"/><stop offset="0.83" stop-color="#9f9fa1"/><stop offset="0.93" stop-color="#bcbdbf"/><stop offset="1" stop-color="#bcbdbf"/></linearGradient><clipPath id="clip-path-3"><rect class="cls-2" x="134.07" y="57.57" width="3.1" height="3.2"/></clipPath><clipPath id="clip-path-4"><path class="cls-5" d="M136.6,60.05a1.38,1.38,0,1,0-2-1.76,1.38,1.38,0,1,0,2,1.76"/></clipPath><filter id="luminosity-noclip-2" x="132.53" y="-8292" width="6.18" height="32766" filterUnits="userSpaceOnUse" color-interpolation-filters="sRGB"><feFlood flood-color="#fff" result="bg"/><feBlend in="SourceGraphic" in2="bg"/></filter><mask id="mask-2" x="132.53" y="-8292" width="6.18" height="32766" maskUnits="userSpaceOnUse"><g class="cls-63"/></mask><linearGradient id="linear-gradient-2" x1="-111.62" y1="659.41" x2="-108.62" y2="659.41" gradientTransform="matrix(0.95, -0.7, -0.41, -0.81, 512.35, 517.64)" xlink:href="#linear-gradient"/><clipPath id="clip-path-5"><rect class="cls-2" x="107.79" y="57.57" width="3.09" height="3.2"/></clipPath><clipPath id="clip-path-6"><path class="cls-5" d="M108.35,60.05a1.38,1.38,0,1,1,2-1.76,1.38,1.38,0,1,1-2,1.76"/></clipPath><filter id="luminosity-noclip-3" x="106.25" y="-8292" width="6.17" height="32766" filterUnits="userSpaceOnUse" color-interpolation-filters="sRGB"><feFlood flood-color="#fff" result="bg"/><feBlend in="SourceGraphic" in2="bg"/></filter><mask id="mask-3" x="106.25" y="-8292" width="6.17" height="32766" maskUnits="userSpaceOnUse"><g class="cls-62"/></mask><linearGradient id="linear-gradient-3" x1="10.89" y1="554.04" x2="13.89" y2="554.04" gradientTransform="matrix(-0.95, -0.7, 0.41, -0.81, -107.85, 517.56)" xlink:href="#linear-gradient"/><linearGradient id="linear-gradient-4" x1="99.87" y1="70.48" x2="145.21" y2="70.48" gradientUnits="userSpaceOnUse"><stop offset="0.16" stop-color="#1a55a5"/><stop offset="0.57" stop-color="#1d4b91"/><stop offset="1" stop-color="#213e79"/></linearGradient><clipPath id="clip-path-7" transform="translate(-58.36 -6.33)"><rect class="cls-2" x="94.59" y="71.18" width="55.79" height="28.28"/></clipPath><clipPath id="clip-path-8" transform="translate(-58.36 -6.33)"><path class="cls-16" d="M101.83,104.24c1,2.93,2.21,4,4.1,4.06.79,3.38,9,31.17,9,31.17a5.3,5.3,0,0,1,2.33-.15,6.43,6.43,0,0,0-2.45.52c-1.38.76-.88,3.33-.88,3.33h5.17c1.44,0,1.44-2.23,1.44-2.23v-2.53L115.09,100A30.48,30.48,0,0,1,95.75,84.73a176.17,176.17,0,0,0,6.08,19.51"/></clipPath><clipPath id="clip-path-9" transform="translate(-58.36 -6.33)"><path class="cls-16" d="M129.87,100.05l-5.46,38.36v2.53s0,2.23,1.44,2.23H131s.49-2.57-.89-3.33a6.43,6.43,0,0,0-2.45-.52,5.3,5.3,0,0,1,2.33.15s8.24-27.79,9-31.17c1.88-.06,3.06-1.13,4.1-4.06A187.27,187.27,0,0,0,149,85.52a30.46,30.46,0,0,1-19.17,14.53"/></clipPath><clipPath id="clip-path-10" transform="translate(-58.36 -6.33)"><path class="cls-2" d="M117.68,139.47a5.3,5.3,0,0,1,2.33-.15,6.89,6.89,0,0,0-2.51.52c-1.61.85-.89,3.33-.89,3.33h4.44c1.31,0,1.42-1.84,1.44-2.16,0,.32.12,2.16,1.44,2.16h4.43s.71-2.48-.89-3.33a6.89,6.89,0,0,0-2.51-.52,5.3,5.3,0,0,1,2.33.15c.86-5.62,3.54-25.41,5.47-40.29a29.82,29.82,0,0,1-20.57-.1c1.94,14.89,4.64,34.76,5.49,40.39"/></clipPath><radialGradient id="radial-gradient" cx="65.58" cy="116.54" r="25.13" gradientUnits="userSpaceOnUse"><stop offset="0.16" stop-color="#1a55a5"/><stop offset="0.43" stop-color="#1b53a2"/><stop offset="0.66" stop-color="#1c4e97"/><stop offset="0.89" stop-color="#1f4485"/><stop offset="1" stop-color="#213e79"/></radialGradient><clipPath id="clip-path-11" transform="translate(-58.36 -6.33)"><rect class="cls-2" x="95.75" y="84.73" width="53.29" height="18.68"/></clipPath><linearGradient id="linear-gradient-5" x1="116.29" y1="58.85" x2="128.48" y2="58.85" xlink:href="#linear-gradient-4"/><clipPath id="clip-path-12" transform="translate(-58.36 -6.33)"><path class="cls-2" d="M116.29,58.85a7.74,7.74,0,0,0,.22,1.88,4.49,4.49,0,0,0,2.09,1.73c2.59,1,5.67-.53,6.88-3.53a5.68,5.68,0,0,0-1.79-7,5.73,5.73,0,0,0-1.31-.16c-3.36,0-6.09,3.15-6.09,7"/></clipPath><linearGradient id="linear-gradient-6" x1="-161.56" y1="556.71" x2="-153.94" y2="556.71" gradientTransform="matrix(0, 1.83, 1.83, 0, -895.23, 345.83)" xlink:href="#linear-gradient-4"/><filter id="luminosity-noclip-4" x="116" y="50.81" width="8.2" height="9.68" filterUnits="userSpaceOnUse" color-interpolation-filters="sRGB"><feFlood flood-color="#fff" result="bg"/><feBlend in="SourceGraphic" in2="bg"/></filter><mask id="mask-4" x="57.64" y="44.49" width="8.2" height="9.68" maskUnits="userSpaceOnUse"><g class="cls-61"><g transform="translate(-58.36 -6.33)"><g class="cls-1"><g class="cls-3"><g class="cls-4"><g class="cls-6"><polygon class="cls-7" points="116 55.26 120.44 50.82 124.2 56.05 119.76 60.5 116 55.26"/></g></g></g></g></g></g></mask><clipPath id="clip-path-13" transform="translate(-58.36 -6.33)"><rect class="cls-2" x="118.23" y="53.54" width="3.74" height="4.22"/></clipPath><clipPath id="clip-path-14" transform="translate(-58.36 -6.33)"><path class="cls-5" d="M121.5,56.57a1.76,1.76,0,1,0-2.81-1.83,2.05,2.05,0,0,0,.17,2.82,2,2,0,0,0,2.64-1"/></clipPath><linearGradient id="linear-gradient-7" x1="-100.61" y1="636.18" x2="-97.62" y2="636.18" gradientTransform="matrix(1.05, -1.05, -0.67, -0.94, 594.52, 541.48)" gradientUnits="userSpaceOnUse"><stop offset="0" stop-color="#fff"/><stop offset="0.14" stop-color="#fff"/><stop offset="0.93" stop-color="#fff"/><stop offset="1" stop-color="#fff"/></linearGradient><clipPath id="clip-path-15" transform="translate(-58.36 -6.33)"><rect class="cls-2" x="116.86" y="61.78" width="11.05" height="4.12"/></clipPath><filter id="luminosity-noclip-5" x="132.53" y="55.48" width="6.18" height="7.37" filterUnits="userSpaceOnUse" color-interpolation-filters="sRGB"><feFlood flood-color="#fff" result="bg"/><feBlend in="SourceGraphic" in2="bg"/></filter><mask id="mask-5" x="74.17" y="49.16" width="6.18" height="7.37" maskUnits="userSpaceOnUse"><g class="cls-60"><g transform="translate(-58.36 -6.33)"><g class="cls-8"><g class="cls-3"><g class="cls-9"><g class="cls-10"><polygon class="cls-11" points="132.53 58.34 136.41 55.48 138.71 60 134.82 62.85 132.53 58.34"/></g></g></g></g></g></g></mask><clipPath id="clip-path-16" transform="translate(-58.36 -6.33)"><rect class="cls-2" x="134.07" y="57.57" width="3.1" height="3.2"/></clipPath><clipPath id="clip-path-17" transform="translate(-58.36 -6.33)"><path class="cls-5" d="M136.6,60.05a1.38,1.38,0,1,0-2-1.76,1.38,1.38,0,1,0,2,1.76"/></clipPath><linearGradient id="linear-gradient-8" x1="-111.62" y1="659.41" x2="-108.62" y2="659.41" gradientTransform="matrix(0.95, -0.7, -0.41, -0.81, 453.99, 511.32)" xlink:href="#linear-gradient-7"/><clipPath id="clip-path-18" transform="translate(-58.36 -6.33)"><rect class="cls-2" x="132.05" y="64.14" width="9.37" height="4.26"/></clipPath><filter id="luminosity-noclip-6" x="106.25" y="55.49" width="6.17" height="7.36" filterUnits="userSpaceOnUse" color-interpolation-filters="sRGB"><feFlood flood-color="#fff" result="bg"/><feBlend in="SourceGraphic" in2="bg"/></filter><mask id="mask-6" x="47.89" y="49.16" width="6.17" height="7.36" maskUnits="userSpaceOnUse"><g class="cls-59"><g transform="translate(-58.36 -6.33)"><g class="cls-12"><g class="cls-3"><g class="cls-13"><g class="cls-14"><polygon class="cls-15" points="112.42 58.34 108.54 55.49 106.25 60 110.13 62.85 112.42 58.34"/></g></g></g></g></g></g></mask><clipPath id="clip-path-19" transform="translate(-58.36 -6.33)"><rect class="cls-2" x="107.79" y="57.57" width="3.09" height="3.2"/></clipPath><clipPath id="clip-path-20" transform="translate(-58.36 -6.33)"><path class="cls-5" d="M108.35,60.05a1.38,1.38,0,1,1,2-1.76,1.38,1.38,0,1,1-2,1.76"/></clipPath><linearGradient id="linear-gradient-9" x1="10.89" y1="554.04" x2="13.89" y2="554.04" gradientTransform="matrix(-0.95, -0.7, 0.41, -0.81, -166.21, 511.23)" xlink:href="#linear-gradient-7"/><clipPath id="clip-path-21" transform="translate(-58.36 -6.33)"><path class="cls-17" d="M95.41,70.48A27.11,27.11,0,1,1,122.52,97.6,27.14,27.14,0,0,1,95.41,70.48m-5,0a32.08,32.08,0,1,0,32.08-32.07A32.12,32.12,0,0,0,90.44,70.48"/></clipPath><linearGradient id="linear-gradient-11" x1="-96.54" y1="526.73" x2="-93.54" y2="526.73" gradientTransform="matrix(21.42, 0, 0, -21.42, 2157.96, 11351.25)" xlink:href="#linear-gradient-4"/><clipPath id="clip-path-22" transform="translate(-58.36 -6.33)"><path class="cls-18" d="M95.41,70.48A27.11,27.11,0,1,1,122.52,97.6,27.14,27.14,0,0,1,95.41,70.48m-5,0a32.08,32.08,0,1,0,32.08-32.07A32.12,32.12,0,0,0,90.44,70.48"/></clipPath></defs><g class="cls-3"><g id="Layer_1" data-name="Layer 1"><rect class="cls-18" x="6.57" y="12.2" width="270" height="162.3"/><rect class="cls-18" x="6.57" y="12.2" width="270" height="162.3"/><path class="cls-19" d="M190.05,48.38H184V54h6.06Z" transform="translate(-58.36 -6.33)"/><path class="cls-19" d="M186.68,88a14.89,14.89,0,0,0,13.1-7.69l.24-.42h56.9l.25.32c2,2.58,5.05,3.88,9,3.88,6.72,0,11.24-4.47,11.24-11.14s-4.51-11-11.48-11c-6.6,0-10.72,4-11,10.64l0,.79h-9.56l.1-2.54c-.11-5.06-1.27-9.07-3.56-12.3A20.43,20.43,0,0,0,228,50.33h0l-.64,6.6h0c7,.74,11.32,5.91,11.43,13.85v0l-.09,2.49h-4.66l.36-1.09a9.74,9.74,0,0,0,.48-3.16c0-5.81-4.16-9.72-10.35-9.72S214.18,63.23,214.18,69a9.78,9.78,0,0,0,.49,3.16l.36,1.09H202.12V57.71h-6.84v13c0,6.52-3.44,10.9-8.55,10.9s-8.6-4.28-8.6-10.9v-13h-6.89V71.34C171.24,80.65,178,88,186.68,88Zm79.14-20.62h.49c2.88,0,4.35,2,4.35,5.82,0,3.18-1.79,5.32-4.45,5.32-2.83,0-4.59-2.15-4.59-5.62C261.62,69.6,263.35,67.33,265.82,67.33Zm-41.28-2.49c2.31,0,3.81,1.63,3.81,4.16s-1.64,4.34-3.81,4.34-3.76-1.87-3.76-4.34S222.25,64.84,224.54,64.84Z" transform="translate(-58.36 -6.33)"/><path class="cls-19" d="M195.8,89.05a8.45,8.45,0,0,0-2.35,6.44v12.4c0,2.91.82,5.06,2.49,6.57s4.16,2.28,7.41,2.28h6.56v-7.38h-5.5a5.4,5.4,0,0,1-2.59-.42,2.16,2.16,0,0,1-.95-2,2.21,2.21,0,0,1,.87-1.92,3.85,3.85,0,0,1,2.26-.53h5.3V99.08H205a4.79,4.79,0,0,1-2.5-.48,2.17,2.17,0,0,1-1-2c0-.9.42-2.41,3.26-2.41h5.17V86.78h-7.35A9.46,9.46,0,0,0,195.8,89.05Z" transform="translate(-58.36 -6.33)"/><rect class="cls-19" x="172.22" y="80.46" width="7.74" height="29.95"/><polygon class="cls-19" points="166.34 80.45 158.6 80.45 158.6 110.41 166.34 110.41 166.34 98.44 168.96 98.44 168.96 91.76 166.34 91.76 166.34 80.45"/><path class="cls-19" d="M257,86c-3.59,0-6.41,1-8.36,3s-2.94,4.84-2.94,8.48v19.28h7.74v-7.53h2.71v-6.68H253.4V97.76c0-3.58,1.9-4.11,3-4.11a2.46,2.46,0,0,1,2.28,1.11,5.8,5.8,0,0,1,.56,3v19H267V97.14c0-3.84-.83-6.7-2.45-8.49S260.41,86,257,86Z" transform="translate(-58.36 -6.33)"/><path class="cls-19" d="M284.73,86a10.3,10.3,0,0,0-11,11.06v19.69h7.74V97.37c0-3.24,1.77-3.72,2.82-3.72s2.89.48,2.89,3.72v19.37h7.75V97.37c0-3.71-.89-6.57-2.63-8.5S288.08,86,284.73,86Z" transform="translate(-58.36 -6.33)"/><path class="cls-19" d="M177,86.37a6.78,6.78,0,0,0-1.37.57,9.76,9.76,0,0,0-3.14,3.17l-.74,1.11-.67-1.15a7.38,7.38,0,0,0-6.76-4,7.93,7.93,0,0,0-6.07,2.43,8.69,8.69,0,0,0-2.34,6.35v22h7.74V97c0-2.92,1.39-3.35,2.22-3.35a1.8,1.8,0,0,1,1.74,1A5.77,5.77,0,0,1,168,97v19.74h7.74V96.86c0-2.78,1.39-3.19,2.22-3.19a1.76,1.76,0,0,1,1.73,1A5.71,5.71,0,0,1,180,97v19.74h7.74V95.61a12.18,12.18,0,0,0-1.41-6.27A17.16,17.16,0,0,1,177,86.37Z" transform="translate(-58.36 -6.33)"/><path class="cls-19" d="M87.57,160.86v-7.27h3.06v1H88.72v2.06h1.64v1H88.72v2.12h1.91v1Z" transform="translate(-58.36 -6.33)"/><path class="cls-19" d="M96.72,160.86,95,156.54v4.32H93.86v-7.27h1l1.71,4.32v-4.32h1.14v7.27Z" transform="translate(-58.36 -6.33)"/><path class="cls-19" d="M103.94,160.86l-1-3h-.65v3H101.2v-7.27H103c1.33,0,1.86.64,1.86,2.14,0,.9-.19,1.55-.85,1.9l1.08,3.23Zm-.89-6.24h-.71v2.23h.71c.61,0,.7-.51.7-1.12S103.66,154.62,103.05,154.62Z" transform="translate(-58.36 -6.33)"/><path class="cls-19" d="M108.32,160.86v-7.27h1.15v7.27Z" transform="translate(-58.36 -6.33)"/><path class="cls-19" d="M115.94,160.48a1.92,1.92,0,0,1-2.66-.16c-.48-.57-.54-1.37-.54-3.1s.06-2.52.54-3.09a1.69,1.69,0,0,1,1.4-.62A1.74,1.74,0,0,1,116,154a2.11,2.11,0,0,1,.58,1.53H115.4a1.41,1.41,0,0,0-.17-.71.69.69,0,0,0-1.09,0,5.69,5.69,0,0,0-.25,2.41,5.63,5.63,0,0,0,.25,2.41.59.59,0,0,0,.54.28.6.6,0,0,0,.55-.26,1.47,1.47,0,0,0,.17-.72h1.14A2.15,2.15,0,0,1,115.94,160.48Z" transform="translate(-58.36 -6.33)"/><path class="cls-19" d="M122.31,160.86v-3.18h-1.42v3.18h-1.14v-7.27h1.14v3.06h1.42v-3.06h1.14v7.27Z" transform="translate(-58.36 -6.33)"/><path class="cls-19" d="M132.73,158v2.85h-1.14V158l-1.41-4.42h1.27l.71,2.88.73-2.88h1.25Z" transform="translate(-58.36 -6.33)"/><path class="cls-19" d="M140.06,160.32a1.7,1.7,0,0,1-1.41.62,1.73,1.73,0,0,1-1.41-.62c-.48-.58-.53-1.37-.53-3.1s0-2.51.53-3.09a1.73,1.73,0,0,1,1.41-.62,1.7,1.7,0,0,1,1.41.62c.49.57.53,1.37.53,3.09S140.55,159.75,140.06,160.32Zm-.86-5.51a.6.6,0,0,0-.55-.27.59.59,0,0,0-.54.27,5.86,5.86,0,0,0-.25,2.41,5.8,5.8,0,0,0,.25,2.41.58.58,0,0,0,.54.28.58.58,0,0,0,.55-.28,5.63,5.63,0,0,0,.25-2.41A5.69,5.69,0,0,0,139.2,154.81Z" transform="translate(-58.36 -6.33)"/><path class="cls-19" d="M147,160.41a1.77,1.77,0,0,1-1.34.53,1.8,1.8,0,0,1-1.36-.53,1.88,1.88,0,0,1-.5-1.34v-5.48H145v5.54a.7.7,0,0,0,.72.78.69.69,0,0,0,.7-.78v-5.54h1.14v5.48A1.88,1.88,0,0,1,147,160.41Z" transform="translate(-58.36 -6.33)"/><path class="cls-19" d="M153.66,160.86l-.95-3h-.64v3h-1.15v-7.27h1.84c1.33,0,1.86.64,1.86,2.14,0,.9-.19,1.55-.85,1.9l1.08,3.23Zm-.89-6.24h-.7v2.23h.7c.61,0,.7-.51.7-1.12S153.38,154.62,152.77,154.62Z" transform="translate(-58.36 -6.33)"/><path class="cls-19" d="M164.48,160.86v-3.18h-1.42v3.18h-1.14v-7.27h1.14v3.06h1.42v-3.06h1.14v7.27Z" transform="translate(-58.36 -6.33)"/><path class="cls-19" d="M172.24,160.41a1.81,1.81,0,0,1-1.35.53,1.83,1.83,0,0,1-1.36-.53,1.88,1.88,0,0,1-.5-1.34v-5.48h1.14v5.54a.7.7,0,0,0,.72.78.69.69,0,0,0,.7-.78v-5.54h1.15v5.48A1.92,1.92,0,0,1,172.24,160.41Z" transform="translate(-58.36 -6.33)"/><path class="cls-19" d="M179.88,160.86v-4.53l-1,3h-.63l-1-2.93v4.48h-1.15v-7.27h1l1.41,3.82,1.39-3.82H181v7.27Z" transform="translate(-58.36 -6.33)"/><path class="cls-19" d="M187.41,160.86l-.3-1.44h-1.69l-.28,1.44h-1.21l1.79-7.27h1.11l1.77,7.27Zm-1.14-5.51-.62,3h1.24Z" transform="translate(-58.36 -6.33)"/><path class="cls-19" d="M194.38,160.86l-1.72-4.32v4.32h-1.14v-7.27h1l1.7,4.32v-4.32h1.15v7.27Z" transform="translate(-58.36 -6.33)"/><path class="cls-19" d="M205.73,160.48a1.7,1.7,0,0,1-1.26.46,1.73,1.73,0,0,1-1.41-.62c-.48-.57-.53-1.37-.53-3.1s.05-2.52.53-3.09a1.73,1.73,0,0,1,1.41-.62,1.75,1.75,0,0,1,1.28.47,2.11,2.11,0,0,1,.58,1.53h-1.14a1.31,1.31,0,0,0-.18-.71.57.57,0,0,0-.54-.26.59.59,0,0,0-.54.27,5.69,5.69,0,0,0-.25,2.41,5.63,5.63,0,0,0,.25,2.41.68.68,0,0,0,1.08,0,1.37,1.37,0,0,0,.18-.72h1.14A2.15,2.15,0,0,1,205.73,160.48Z" transform="translate(-58.36 -6.33)"/><path class="cls-19" d="M212.34,160.86l-.29-1.44h-1.69l-.28,1.44h-1.21l1.79-7.27h1.11l1.77,7.27Zm-1.13-5.51-.62,3h1.24Z" transform="translate(-58.36 -6.33)"/><path class="cls-19" d="M218.28,158h-.68v2.85h-1.14v-7.27h1.82c1.32,0,1.87.69,1.87,2.22S219.6,158,218.28,158Zm0-3.39h-.64V157h.64c.62,0,.77-.44.77-1.17S218.86,154.62,218.24,154.62Z" transform="translate(-58.36 -6.33)"/><path class="cls-19" d="M223.39,160.86v-7.27h1.14v7.27Z" transform="translate(-58.36 -6.33)"/><path class="cls-19" d="M230,154.62v6.24h-1.14v-6.24H227.6v-1h3.59v1Z" transform="translate(-58.36 -6.33)"/><path class="cls-19" d="M236.76,160.86l-.3-1.44h-1.68l-.29,1.44h-1.2l1.78-7.27h1.12l1.76,7.27Zm-1.13-5.51-.63,3h1.25Z" transform="translate(-58.36 -6.33)"/><path class="cls-19" d="M240.87,160.86v-7.27H242v6.24h1.91v1Z" transform="translate(-58.36 -6.33)"/><path class="cls-19" d="M250.9,160.86v-7.27h3v1H252v2.06h1.64v1H252v2.12H254v1Z" transform="translate(-58.36 -6.33)"/><path class="cls-19" d="M259.61,160.86l-.83-2.61-.84,2.61h-1.26l1.44-3.77-1.32-3.5h1.25l.73,2.43.72-2.43h1.26l-1.36,3.5,1.47,3.77Z" transform="translate(-58.36 -6.33)"/><path class="cls-19" d="M265.67,158H265v2.85h-1.14v-7.27h1.83c1.32,0,1.87.69,1.87,2.22S267,158,265.67,158Zm0-3.39H265V157h.65c.61,0,.76-.44.76-1.17S266.24,154.62,265.63,154.62Z" transform="translate(-58.36 -6.33)"/><path class="cls-19" d="M270.77,160.86v-7.27h3.05v1h-1.91v2.06h1.65v1h-1.65v2.12h1.91v1Z" transform="translate(-58.36 -6.33)"/><path class="cls-19" d="M279.8,160.86l-.95-3h-.65v3h-1.14v-7.27h1.84c1.33,0,1.86.64,1.86,2.14,0,.9-.19,1.55-.85,1.9l1.08,3.23Zm-.89-6.24h-.71v2.23h.71c.61,0,.7-.51.7-1.12S279.52,154.62,278.91,154.62Z" transform="translate(-58.36 -6.33)"/><path class="cls-19" d="M284.18,160.86v-7.27h1.15v7.27Z" transform="translate(-58.36 -6.33)"/><path class="cls-19" d="M288.8,160.86v-7.27h3.05v1h-1.91v2.06h1.65v1h-1.65v2.12h1.91v1Z" transform="translate(-58.36 -6.33)"/><path class="cls-19" d="M298,160.86l-1.72-4.32v4.32h-1.14v-7.27h1l1.7,4.32v-4.32H299v7.27Z" transform="translate(-58.36 -6.33)"/><path class="cls-19" d="M305.43,160.48a1.7,1.7,0,0,1-1.26.46,1.73,1.73,0,0,1-1.41-.62c-.48-.57-.53-1.37-.53-3.1s0-2.52.53-3.09a1.73,1.73,0,0,1,1.41-.62,1.75,1.75,0,0,1,1.28.47,2.11,2.11,0,0,1,.58,1.53h-1.14a1.31,1.31,0,0,0-.18-.71.57.57,0,0,0-.54-.26.59.59,0,0,0-.54.27,5.69,5.69,0,0,0-.25,2.41,5.63,5.63,0,0,0,.25,2.41.68.68,0,0,0,1.08,0,1.37,1.37,0,0,0,.18-.72H306A2.15,2.15,0,0,1,305.43,160.48Z" transform="translate(-58.36 -6.33)"/><path class="cls-19" d="M309.23,160.86v-7.27h3.06v1h-1.91v2.06H312v1h-1.64v2.12h1.91v1Z" transform="translate(-58.36 -6.33)"/><path class="cls-20" d="M114.86,98.37l-4-27.91c-.39,0-2.53.11-3,.11-.23,3-.46,5.12-.69,8.19l-.28.06c-1.38-3.66-2.77-7.32-4.27-11.25-1.46.57-2.86,1-4.14,1.65A6.51,6.51,0,0,0,94.61,75a22.89,22.89,0,0,0,0,2.6,28.94,28.94,0,0,0,20.21,20.74" transform="translate(-58.36 -6.33)"/><path class="cls-20" d="M150.18,79.17a24.91,24.91,0,0,0,.18-4.14,6.51,6.51,0,0,0-3.91-5.81c-1.28-.64-2.67-1.08-4.14-1.65-1.5,3.93-2.89,7.59-4.27,11.25l-.28-.06c-.23-3.07-.46-5.15-.69-8.19-.46,0-2.6-.11-3-.11l-4,28a29,29,0,0,0,20.08-19.27" transform="translate(-58.36 -6.33)"/><path class="cls-21" d="M143,82.93a2.13,2.13,0,0,1-1.27-1l-5.16-10.79h0a6.72,6.72,0,0,0-3.52-3.64c-1.28-.63-2.67-1.07-4.14-1.65-1.5,3.94-2.88,7.6-4.27,11.26a2.8,2.8,0,0,0-.28-.06c-.23-3.08-.46-5.16-.69-8.19h-2.43c-.23,3-.46,5.11-.7,8.19l-.27.06c-1.38-3.66-2.77-7.32-4.27-11.26-1.47.58-2.86,1-4.14,1.65a6.72,6.72,0,0,0-3.52,3.64h0L103.2,82a2.13,2.13,0,0,1-1.27,1,19.26,19.26,0,0,1-5,.7,28.3,28.3,0,0,0,3.61,5.49l4.24-.46A3.85,3.85,0,0,0,107.39,87l2.83-4c.25,2.43.92,7.8,1.76,14.34a28.57,28.57,0,0,0,21,.1c.85-6.58,1.52-12,1.77-14.44l2.83,4a3.85,3.85,0,0,0,2.64,1.63l4.48.48a28.81,28.81,0,0,0,3.64-5.52,18,18,0,0,1-5.3-.69" transform="translate(-58.36 -6.33)"/><g class="cls-22"><g class="cls-23"><path class="cls-24" d="M144.7,89.14l.09-.12a30.65,30.65,0,0,0,1.89-2.52h0a28.7,28.7,0,0,0,3.5-7.32,24.86,24.86,0,0,0,.18-4.14A6.57,6.57,0,0,0,149,71.17c-.81,13.18-12.35,23.68-26.46,23.68S96.83,84.35,96,71.17A6.57,6.57,0,0,0,94.61,75a25.67,25.67,0,0,0,0,2.61,28.79,28.79,0,0,0,2.27,6h0c.07.14.15.26.22.4.39.73.8,1.46,1.26,2.15.18.29.38.56.57.84.35.5.71,1,1.09,1.47.16.2.3.43.46.63h0A28.93,28.93,0,0,0,112,97.38v0c.16.07.35.12.51.18l1.33.46,1,.31.06,0h0a28.23,28.23,0,0,0,5.47,1c.58,0,1.16.08,1.75.09h.46c.85,0,1.69,0,2.53-.12a27.87,27.87,0,0,0,5-.9h0l.1,0,.91-.28c.48-.15.95-.3,1.42-.48.14-.05.3-.09.45-.15v0a28.87,28.87,0,0,0,11.71-8.34Z" transform="translate(-58.36 -6.33)"/></g></g><path class="cls-16" d="M101.83,104.24c1,2.93,2.21,4,4.1,4.06.79,3.38,9,31.17,9,31.17a5.3,5.3,0,0,1,2.33-.15,6.43,6.43,0,0,0-2.45.52c-1.38.76-.88,3.33-.88,3.33h5.17c1.44,0,1.44-2.23,1.44-2.23v-2.53L115.09,100A30.48,30.48,0,0,1,95.75,84.73a176.17,176.17,0,0,0,6.08,19.51" transform="translate(-58.36 -6.33)"/><g class="cls-25"><rect class="cls-26" x="37.39" y="78.4" width="24.81" height="58.44"/></g><path class="cls-16" d="M129.87,100.05l-5.46,38.36v2.53s0,2.23,1.44,2.23H131s.49-2.57-.89-3.33a6.43,6.43,0,0,0-2.45-.52,5.3,5.3,0,0,1,2.33.15s8.24-27.79,9-31.17c1.88-.06,3.06-1.13,4.1-4.06A187.27,187.27,0,0,0,149,85.52a30.46,30.46,0,0,1-19.17,14.53" transform="translate(-58.36 -6.33)"/><g class="cls-27"><rect class="cls-26" x="66.05" y="79.19" width="24.63" height="57.65"/></g><g class="cls-28"><rect class="cls-29" x="53.83" y="92.76" width="20.57" height="44.09"/></g><g class="cls-22"><g class="cls-30"><path class="cls-31" d="M130,100a29.33,29.33,0,0,1-15-.06A30.47,30.47,0,0,1,95.75,84.73c.56,2.47,1.27,5,2,7.5a32.91,32.91,0,0,0,49.43,0c.67-2.22,1.31-4.49,1.84-6.71A30.45,30.45,0,0,1,130,100" transform="translate(-58.36 -6.33)"/></g></g><path class="cls-32" d="M151.36,84.44a32.27,32.27,0,0,1-2.74,4.6,4.33,4.33,0,0,0,1.37-.45,3.62,3.62,0,0,0,1-2.45c1.48-.43,1.77-1.24,1.77-1.24l-.2-.46Z" transform="translate(-58.36 -6.33)"/><path class="cls-32" d="M93.61,84.44H92.25l-.2.46s.29.81,1.77,1.24a3.53,3.53,0,0,0,1,2.45,4.68,4.68,0,0,0,1.57.49,31.42,31.42,0,0,1-2.77-4.64" transform="translate(-58.36 -6.33)"/><path class="cls-33" d="M128.48,58.85c0-3.89-2.73-7-6.1-7s-6.09,3.15-6.09,7,2.73,7.05,6.09,7.05,6.1-3.16,6.1-7.05" transform="translate(-58.36 -6.33)"/><g class="cls-34"><rect class="cls-35" x="114.08" y="50.71" width="14.7" height="13.91" transform="translate(-35.83 142.38) rotate(-68.03)"/></g><g class="cls-36"><g class="cls-37"><g class="cls-38"><g class="cls-39"><polygon class="cls-40" points="57.64 48.94 62.08 44.49 65.84 49.72 61.4 54.17 57.64 48.94"/></g></g></g></g><g class="cls-41"><g class="cls-42"><path class="cls-43" d="M122.38,65.12a6.34,6.34,0,0,1-5.52-3.34,5.76,5.76,0,0,0,11,0,6.37,6.37,0,0,1-5.53,3.34" transform="translate(-58.36 -6.33)"/></g></g><path class="cls-44" d="M142.28,63.16c.5-3.3-1.4-6.33-4.25-6.76s-5.57,1.88-6.08,5.18,1.4,6.33,4.25,6.76,5.58-1.88,6.08-5.18" transform="translate(-58.36 -6.33)"/><g class="cls-45"><g class="cls-37"><g class="cls-46"><g class="cls-47"><polygon class="cls-48" points="74.17 52.01 78.05 49.16 80.35 53.67 76.46 56.52 74.17 52.01"/></g></g></g></g><g class="cls-49"><g class="cls-50"><path class="cls-43" d="M136.3,67.69a5.49,5.49,0,0,1-4.25-3.56,4.95,4.95,0,0,0,9.37,1.44,5.49,5.49,0,0,1-5.12,2.12" transform="translate(-58.36 -6.33)"/></g></g><path class="cls-44" d="M102.67,63.16c-.51-3.3,1.39-6.33,4.25-6.76s5.58,1.88,6.08,5.18-1.4,6.33-4.25,6.76-5.58-1.88-6.08-5.18" transform="translate(-58.36 -6.33)"/><g class="cls-51"><g class="cls-37"><g class="cls-52"><g class="cls-53"><polygon class="cls-54" points="54.06 52.01 50.18 49.16 47.89 53.67 51.77 56.52 54.06 52.01"/></g></g></g></g><g class="cls-49"><path class="cls-43" d="M108.65,67.69a5.49,5.49,0,0,0,4.25-3.56,4.95,4.95,0,0,1-9.37,1.44,5.49,5.49,0,0,0,5.12,2.12" transform="translate(-58.36 -6.33)"/></g><path class="cls-17" d="M95.41,70.48A27.11,27.11,0,1,1,122.52,97.6,27.14,27.14,0,0,1,95.41,70.48m-5,0a32.08,32.08,0,1,0,32.08-32.07A32.12,32.12,0,0,0,90.44,70.48" transform="translate(-58.36 -6.33)"/><g class="cls-55"><rect class="cls-56" x="77.15" y="25.12" width="90.73" height="90.73" transform="translate(-72.32 100.95) rotate(-45)"/></g><g class="cls-57"><path class="cls-18" d="M95.41,70.48A27.11,27.11,0,1,1,122.52,97.6,27.14,27.14,0,0,1,95.41,70.48m-5,0a32.08,32.08,0,1,0,32.08-32.07A32.12,32.12,0,0,0,90.44,70.48" transform="translate(-58.36 -6.33)"/><g class="cls-58"><rect class="cls-18" x="77.15" y="25.12" width="90.73" height="90.73" transform="translate(-72.32 100.95) rotate(-45)"/></g></g><path class="cls-21" d="M153,84.52a1.62,1.62,0,0,1-2.07,1c-.79-.32-.84-.66-.64-2l.4-2.48c.25-1.22.76-1.38,2.37-.77a1.83,1.83,0,0,1,.65,2.55Z" transform="translate(-58.36 -6.33)"/><path class="cls-21" d="M91.84,84.52a1.62,1.62,0,0,0,2.07,1c.79-.32.85-.66.65-2L94.16,81c-.25-1.22-.76-1.38-2.38-.77a1.84,1.84,0,0,0-.65,2.55Z" transform="translate(-58.36 -6.33)"/><rect class="cls-19" x="107.17" y="119.27" width="2.94" height="17.47"/><polygon class="cls-19" points="101.21 119.27 98.27 119.27 98.27 136.74 101.21 136.74 101.21 128.91 105.93 128.91 105.93 126.66 101.21 126.66 101.21 119.27"/><path class="cls-19" d="M180.93,137.19c0,2.58-1.5,3.5-2.9,3.5s-2.95-.92-2.95-3.5v-11.6h-3v11.6a7.08,7.08,0,0,0,1.45,4.85,5.26,5.26,0,0,0,4.16,1.53,5.7,5.7,0,0,0,6.14-6.17V125.59h-2.95Z" transform="translate(-58.36 -6.33)"/><path class="cls-19" d="M216.09,125.09a6.39,6.39,0,0,0-4.72,1.63,6.62,6.62,0,0,0-1.62,4.8v11.55h2.95v-4.92h4.77V135.9H212.7v-4.18c0-2.77,1.57-3.75,3-3.75a2.64,2.64,0,0,1,2.39,1.23,4.64,4.64,0,0,1,.53,2.52v11.35h2.94V131.31c0-2.24-.44-3.87-1.32-4.83S218,125.09,216.09,125.09Z" transform="translate(-58.36 -6.33)"/><path class="cls-19" d="M231.43,125.09a5.69,5.69,0,0,0-6.14,6.16v11.82h3V131.46c0-2.57,1.5-3.49,2.9-3.49s3,.92,3,3.49v11.61H237V131.46a7.1,7.1,0,0,0-1.45-4.85A5.29,5.29,0,0,0,231.43,125.09Z" transform="translate(-58.36 -6.33)"/><rect class="cls-19" x="199.65" y="118.99" width="2.94" height="17.47"/><polygon class="cls-19" points="193.69 118.99 190.75 118.99 190.75 136.45 193.69 136.45 193.69 128.62 198.41 128.62 198.41 126.38 193.69 126.38 193.69 118.99"/><path class="cls-19" d="M273.45,136.93c0,2.58-1.5,3.5-2.91,3.5s-3-.92-3-3.5v-11.6h-2.94v11.6a7.06,7.06,0,0,0,1.44,4.85,5.28,5.28,0,0,0,4.16,1.53,6,6,0,0,0,4.49-1.65,6.06,6.06,0,0,0,1.65-4.52V125.33h-2.94Z" transform="translate(-58.36 -6.33)"/><path class="cls-19" d="M293.15,134.49a2.52,2.52,0,0,0-.3-.27l-.62-.52.33-.73a5.75,5.75,0,0,0,.43-2.32,4.79,4.79,0,0,0-5.19-5.15h-7V143h3.1l1.07,0h4.24a6,6,0,0,0,4.09-1.21,4.36,4.36,0,0,0,1.27-3.49A5,5,0,0,0,293.15,134.49Zm-4,6.22h-5.46v-13h3.91c2.33,0,3.16,1.37,3.16,2.66s-.83,2.69-3.16,2.69h-1v2.25l1.06,0h1.47c2.33,0,3.16,1.37,3.16,2.65S291.5,140.71,289.17,140.71Z" transform="translate(-58.36 -6.33)"/><path class="cls-19" d="M201.25,125.07a5.08,5.08,0,0,0-4,1.65l0,0a1.51,1.51,0,0,0-.1-.17,4.47,4.47,0,0,0-3.73-1.53,5.08,5.08,0,0,0-4,1.65,6.45,6.45,0,0,0-1.48,4.52v11.81h2.64v-11.6c0-2.58,1.35-3.5,2.61-3.5s2.64.92,2.64,3.5v11.6h2.65v-11.6c0-2.58,1.35-3.5,2.61-3.5s2.65.92,2.65,3.5v11.6h2.64v-11.6a7.63,7.63,0,0,0-1.3-4.85A4.47,4.47,0,0,0,201.25,125.07Z" transform="translate(-58.36 -6.33)"/></g></g></svg>